# xmcd
#
# Track frame offsets: 
#        150
#        12198
#        27774
#        45856
#        58639
#        73060
#        85805
#        98235
#        113070
#        126542
#        138942
#        151555
#        165237
#        177686
#        193764
#
# Disc length: 2777 seconds
#
# Revision: 0
# Processed by: cddbd v1.5.2PL0 Copyright (c) Steve Scherf et al.
# Submitted via: ExactAudioCopyFreeDBPlugin 1.0
#
DISCID=bc0ad70f
DTITLE=Various Artist - Faith, Hope and Country - Peace In The Valley -
DTITLE=Disc 2
DYEAR=2016
DGENRE=Country
TTITLE0=Willie Nelson - Sweet Bye and Bye
TTITLE1=Charlie Rich - Old Time Religion
TTITLE2=Shenandoah - Sunday In The South
TTITLE3=Dolly Parton - Go Tell It On The Mountain
TTITLE4=Marty Robbins - Will The Circle Be Unbroken
TTITLE5=Alabama - Down By The Riverside
TTITLE6=Eddy Arnold - May The Good Lord Bless And Keep You
TTITLE7=Ray Price - Softly And Tenderly
TTITLE8=Jim Reeves - It Is No Secret (What God Can Do)
TTITLE9=Willie Nelson - When The Roll Is Called Up Yonder
TTITLE10=Johnny Cash - (There'll Be) Peace In The Valley (For Me)
TTITLE11=Dolly Parton - Comin' For To Carry Me Home
TTITLE12=Elvis Presley - You'll Never Walk Alone
TTITLE13=Dottie West - His Eye Is On The Sparrow
TTITLE14=Larry Gatlin - It Must Have Rained In Heaven
EXTD=
EXTT0=
EXTT1=
EXTT2=
EXTT3=
EXTT4=
EXTT5=
EXTT6=
EXTT7=
EXTT8=
EXTT9=
EXTT10=
EXTT11=
EXTT12=
EXTT13=
EXTT14=
PLAYORDER=
